HIERARCHY
ROOT cyl_med
{
	OFFSET 0.000000 0.000000 0.000000
	CHANNELS 6 Xposition Yposition Zposition Yrotation Xrotation Zrotation
	End Site
	{
		OFFSET 0.000000 0.000000 0.000000
	}
}
MOTION
Frames: 149
Frame Time: 0.008333334
-3.109373 1.048416 3.411986 176.475200 -1.564880 -1.016876 
-3.108769 1.048234 3.411990 176.418900 -1.491302 -0.982910 
-3.108464 1.048480 3.411962 176.379100 -1.513367 -1.009277 
-3.108365 1.048743 3.411888 176.427000 -1.511841 -1.011627 
-3.108427 1.048495 3.411795 176.404400 -1.496338 -1.037933 
-3.108510 1.048719 3.411650 176.470100 -1.516144 -1.053772 
-3.108610 1.048039 3.412026 176.386200 -1.518219 -1.054596 
-3.108758 1.048559 3.412034 176.462400 -1.520599 -1.056824 
-3.109092 1.048276 3.412133 176.395200 -1.469025 -1.042450 
-3.108925 1.048532 3.411651 176.431200 -1.564789 -1.070313 
-3.108855 1.048320 3.411897 176.381600 -1.501556 -1.040100 
-3.108996 1.048209 3.411852 176.410600 -1.450562 -1.062683 
-3.109231 1.048170 3.411479 176.422800 -1.549866 -1.060242 
-3.108752 1.048054 3.411767 176.395800 -1.498535 -1.060944 
-3.108727 1.048442 3.412188 176.394800 -1.521423 -1.015106 
-3.108604 1.048395 3.412020 176.394900 -1.526428 -1.037689 
-3.108325 1.048101 3.412338 176.383000 -1.482635 -0.992371 
-3.108425 1.048418 3.411895 176.478400 -1.530640 -1.018402 
-3.108651 1.048403 3.411860 176.473100 -1.544098 -1.007233 
-3.108435 1.047986 3.411770 176.386500 -1.516541 -0.986725 
-3.108823 1.048244 3.411674 176.405800 -1.499634 -1.068787 
-3.109007 1.048179 3.411888 176.406600 -1.524109 -1.021606 
-3.109277 1.048488 3.411846 176.461200 -1.527771 -1.006470 
-3.108963 1.048495 3.412205 176.414300 -1.482452 -1.039154 
-3.109034 1.048059 3.411640 176.384600 -1.496948 -1.070343 
-3.108706 1.048292 3.412189 176.397700 -1.501404 -1.020020 
-3.108881 1.048023 3.411725 176.402100 -1.453888 -1.020264 
-3.108223 1.048612 3.411736 176.441100 -1.517975 -1.017029 
-3.108649 1.048419 3.411686 176.495000 -1.534393 -1.004944 
-3.108530 1.048644 3.411865 176.478500 -1.527740 -1.001129 
-3.108454 1.048168 3.412323 176.422700 -1.514038 -1.012512 
-3.109000 1.048624 3.411884 176.483500 -1.542297 -1.003967 
-3.108777 1.048556 3.411829 176.421900 -1.498810 -1.044189 
-3.108758 1.048408 3.411684 176.447400 -1.509552 -1.039459 
-3.108727 1.048123 3.411806 176.370200 -1.528076 -1.051086 
-3.109190 1.048383 3.411905 176.469900 -1.543854 -0.993103 
-3.109268 1.048255 3.411817 176.465800 -1.562012 -1.028259 
-3.109003 1.048300 3.411600 176.461200 -1.569519 -1.051910 
-3.108917 1.048369 3.412058 176.416200 -1.510254 -1.002014 
-3.108863 1.048442 3.411798 176.469700 -1.549561 -0.995758 
-3.108570 1.048306 3.412017 176.418500 -1.522339 -1.000671 
-3.108699 1.048430 3.412199 176.410800 -1.512329 -0.988770 
-3.108446 1.048202 3.412113 176.395900 -1.538177 -0.953644 
-3.108607 1.048534 3.412439 176.390400 -1.527893 -0.997315 
-3.109121 1.048475 3.412174 176.466000 -1.539063 -0.966614 
-3.108934 1.048181 3.411785 176.428800 -1.594452 -1.006500 
-3.109283 1.048146 3.412078 176.458500 -1.567261 -0.990418 
-3.109139 1.048271 3.411943 176.463700 -1.512177 -1.003784 
-3.109184 1.048090 3.412106 176.405200 -1.461395 -0.998627 
-3.109429 1.048392 3.412042 176.467400 -1.548401 -0.982880 
-3.108967 1.047830 3.411838 176.376500 -1.525543 -1.010162 
-3.109144 1.048322 3.411918 176.447700 -1.524323 -1.001221 
-3.108857 1.048086 3.412276 176.392000 -1.528107 -0.986542 
-3.108756 1.048082 3.412090 176.421300 -1.526398 -0.991547 
-3.108718 1.048142 3.412181 176.394200 -1.492401 -1.004517 
-3.108991 1.048060 3.412160 176.426300 -1.590118 -1.010742 
-3.108599 1.047933 3.412504 176.405300 -1.528442 -1.009064 
-3.108807 1.048037 3.411847 176.364000 -1.578522 -0.992096 
-3.108922 1.048238 3.412045 176.375200 -1.540680 -0.995606 
-3.109033 1.048014 3.411798 176.446300 -1.580109 -0.980591 
-3.108692 1.048034 3.411926 176.399800 -1.526581 -1.018524 
-3.109169 1.048206 3.412320 176.420600 -1.548615 -0.992371 
-3.108904 1.048133 3.412221 176.429900 -1.517609 -0.966980 
-3.108807 1.048069 3.412044 176.440800 -1.531128 -0.948578 
-3.108554 1.048518 3.412136 176.392200 -1.522430 -0.998749 
-3.108591 1.048331 3.412015 176.391400 -1.507050 -0.987549 
-3.108680 1.048159 3.412156 176.411400 -1.523621 -0.990509 
-3.108800 1.048379 3.412157 176.410200 -1.502258 -0.981506 
-3.108618 1.048086 3.411859 176.396500 -1.510925 -1.006500 
-3.109286 1.048284 3.411942 176.470700 -1.507935 -0.983398 
-3.109260 1.048410 3.412200 176.470200 -1.527283 -1.008331 
-3.108932 1.048030 3.412343 176.430000 -1.474609 -1.020996 
-3.109036 1.048157 3.412355 176.419100 -1.495483 -1.026276 
-3.108934 1.048439 3.412174 176.411700 -1.523926 -1.006989 
-3.108834 1.048120 3.412129 176.409900 -1.539551 -0.986450 
-3.108688 1.047833 3.411986 176.411500 -1.516144 -1.016998 
-3.108759 1.047988 3.411943 176.410900 -1.500153 -0.995850 
-3.108603 1.048415 3.411993 176.427400 -1.499634 -1.008545 
-3.108957 1.048525 3.412136 176.494300 -1.539093 -1.005554 
-3.108381 1.048455 3.412080 176.414900 -1.472961 -1.038788 
-3.108562 1.048128 3.412033 176.395100 -1.537842 -1.027344 
-3.109157 1.048314 3.412093 176.486500 -1.574249 -0.943298 
-3.108934 1.048124 3.412253 176.378900 -1.561371 -1.025909 
-3.109469 1.048319 3.411477 176.479500 -1.562439 -1.081512 
-3.111032 1.048063 3.411291 176.367600 -1.605255 -1.001648 
-3.116436 1.048251 3.411031 176.008400 -1.501923 -1.038574 
-3.122344 1.048180 3.411775 175.678000 -1.482117 -0.974579 
-3.125669 1.048259 3.415505 175.588100 -1.647827 -1.084137 
-3.126187 1.048076 3.418821 175.306000 -1.621490 -1.029541 
-3.125090 1.047857 3.422999 175.122800 -1.611664 -1.072906 
-3.124669 1.048309 3.425609 175.113900 -1.599152 -1.189728 
-3.125449 1.048943 3.429266 175.406800 -1.775940 -1.267883 
-3.126811 1.050630 3.435301 175.747100 -1.943878 -1.481049 
-3.126594 1.053012 3.444434 176.081900 -2.391235 -1.741180 
-3.126116 1.059520 3.454396 176.272200 -3.057068 -1.841553 
-3.125341 1.069857 3.461847 176.443800 -3.846191 -2.104034 
-3.123805 1.083469 3.468359 176.496300 -4.382141 -2.109467 
-3.123476 1.101581 3.470726 176.628200 -4.870819 -2.171326 
-3.122555 1.123836 3.468668 176.556000 -5.092224 -2.300903 
-3.121715 1.150455 3.461445 176.370800 -4.971649 -2.472656 
-3.120753 1.182253 3.450354 176.425400 -4.685730 -2.877106 
-3.117668 1.218476 3.433730 176.540700 -3.977081 -3.014038 
-3.110996 1.260491 3.414505 176.567400 -2.942688 -3.134369 
-3.099741 1.305217 3.390792 176.588200 -1.698059 -2.960114 
-3.084658 1.354194 3.366701 176.818300 -0.464966 -2.634186 
-3.064337 1.405429 3.342824 176.894700 0.487963 -2.065277 
-3.039964 1.460360 3.322765 177.210300 1.287905 -1.242493 
-3.011515 1.518526 3.304546 177.375100 1.705279 -0.146545 
-2.977586 1.579796 3.287822 177.624100 2.164976 0.989585 
-2.939954 1.644099 3.272815 177.934400 2.401799 2.321402 
-2.897237 1.711647 3.256533 178.364700 2.549010 3.799935 
-2.849736 1.781718 3.241030 178.895800 2.713749 5.414949 
-2.797858 1.853304 3.225851 179.348800 2.730609 7.179274 
-2.740895 1.926908 3.209596 179.972800 2.827839 9.068897 
-2.679579 2.000763 3.193907 -179.545500 2.644449 11.039850 
-2.611778 2.075088 3.177923 -178.834300 2.476050 13.349610 
-2.538512 2.147476 3.163680 -178.396700 2.136172 15.749440 
-2.458883 2.217808 3.152791 -178.117300 1.411183 18.546140 
-2.374840 2.283877 3.144202 -177.672200 0.463690 21.784160 
-2.285971 2.345817 3.138984 -177.679800 -0.729218 24.938240 
-2.194350 2.402064 3.137326 -177.793000 -2.289795 28.579200 
-2.101703 2.456213 3.134405 -177.897500 -3.668915 32.054370 
-2.008803 2.505591 3.131850 -178.308100 -5.307648 35.856190 
-1.914697 2.551696 3.127016 -178.591500 -6.879425 39.469530 
-1.823805 2.596075 3.120198 -178.862500 -8.140625 42.911810 
-1.734678 2.637836 3.112486 -179.335700 -9.572754 46.440240 
-1.651022 2.678561 3.102651 -179.835300 -10.743320 49.642620 
-1.571769 2.716923 3.091589 179.663600 -11.860630 52.707080 
-1.497202 2.755410 3.081514 179.229700 -12.710750 55.207890 
-1.423884 2.791103 3.072177 178.296100 -13.709230 58.009620 
-1.352783 2.823391 3.064523 177.236300 -14.670780 61.003870 
-1.286300 2.850402 3.058625 176.057000 -15.498840 64.005950 
-1.220052 2.876265 3.051316 174.726800 -16.423460 66.931270 
-1.158490 2.899385 3.045300 173.248000 -17.076510 70.041090 
-1.099566 2.922236 3.037891 171.896600 -17.706630 72.845980 
-1.044844 2.945906 3.029366 170.593100 -18.087310 75.479420 
-0.993140 2.971580 3.021668 169.341400 -18.421420 77.788850 
-0.942155 2.998977 3.011831 168.246600 -18.608550 79.681790 
-0.894810 3.027042 3.000317 167.319500 -18.575680 81.665890 
-0.846626 3.056055 2.987203 166.695000 -18.653660 83.288080 
-0.799603 3.083401 2.973773 165.893400 -18.278410 84.861330 
-0.754940 3.108205 2.960312 165.502800 -18.049320 86.466510 
-0.711279 3.133614 2.946430 164.933400 -17.855740 87.877360 
-0.669725 3.157946 2.932712 164.651600 -17.657040 88.996380 
-0.630005 3.180444 2.920661 164.178900 -17.455260 90.043250 
-0.593614 3.204067 2.911463 163.799000 -17.195830 91.280320 
-0.557426 3.225199 2.902078 163.436600 -17.035160 92.017420 
-0.523880 3.245045 2.892579 163.202800 -16.754760 92.704190 
-0.492049 3.261963 2.882218 162.963900 -16.536830 93.684920 
